<mxfile host="app.diagrams.net" agent="Mozilla/5.0 (Windows NT 10.0; Win64; x64) AppleWebKit/537.36 (KHTML, like Gecko) Chrome/140.0.0.0 Safari/537.36" version="28.2.3">
  <diagram name="第 1 页" id="WdFy_30f4ptSzJLmwI_0">
    <mxGraphModel dx="1426" dy="743" grid="0" gridSize="10" guides="1" tooltips="1" connect="1" arrows="1" fold="1" page="0" pageScale="1" pageWidth="827" pageHeight="1169" math="0" shadow="0">
      <root>
        <mxCell id="0" />
        <mxCell id="1" parent="0" />
        <mxCell id="MvP96J6XM6N36xusTDzM-1" value="CStoredb DS_01" style="shape=datastore;whiteSpace=wrap;html=1;sketch=1;hachureGap=4;jiggle=2;curveFitting=1;fontFamily=Comic Sans MS;" vertex="1" parent="1">
          <mxGeometry x="220" y="180" width="110" height="60" as="geometry" />
        </mxCell>
        <mxCell id="MvP96J6XM6N36xusTDzM-2" value="CStoredb DS_02" style="shape=datastore;whiteSpace=wrap;html=1;sketch=1;hachureGap=4;jiggle=2;curveFitting=1;fontFamily=Comic Sans MS;" vertex="1" parent="1">
          <mxGeometry x="220" y="360" width="110" height="60" as="geometry" />
        </mxCell>
        <mxCell id="MvP96J6XM6N36xusTDzM-3" value="CStoredb DS_03" style="shape=datastore;whiteSpace=wrap;html=1;sketch=1;hachureGap=4;jiggle=2;curveFitting=1;fontFamily=Comic Sans MS;" vertex="1" parent="1">
          <mxGeometry x="220" y="540" width="110" height="60" as="geometry" />
        </mxCell>
        <mxCell id="MvP96J6XM6N36xusTDzM-4" value="CStoredb DS_04" style="shape=datastore;whiteSpace=wrap;html=1;sketch=1;hachureGap=4;jiggle=2;curveFitting=1;fontFamily=Comic Sans MS;" vertex="1" parent="1">
          <mxGeometry x="220" y="720" width="110" height="60" as="geometry" />
        </mxCell>
        <mxCell id="MvP96J6XM6N36xusTDzM-5" value="" style="shape=curlyBracket;whiteSpace=wrap;html=1;rounded=1;labelPosition=left;verticalLabelPosition=middle;align=right;verticalAlign=middle;sketch=1;hachureGap=4;jiggle=2;curveFitting=1;fontFamily=Comic Sans MS;size=0.5;" vertex="1" parent="1">
          <mxGeometry x="340" y="150" width="20" height="120" as="geometry" />
        </mxCell>
        <mxCell id="MvP96J6XM6N36xusTDzM-10" value="" style="group;fontFamily=Comic Sans MS;" vertex="1" connectable="0" parent="1">
          <mxGeometry x="373" y="140" width="81" height="140" as="geometry" />
        </mxCell>
        <mxCell id="MvP96J6XM6N36xusTDzM-6" value="Single DS 01" style="shape=datastore;whiteSpace=wrap;html=1;sketch=1;hachureGap=4;jiggle=2;curveFitting=1;fontFamily=Comic Sans MS;" vertex="1" parent="MvP96J6XM6N36xusTDzM-10">
          <mxGeometry width="81.00000000000001" height="29.473684210526315" as="geometry" />
        </mxCell>
        <mxCell id="MvP96J6XM6N36xusTDzM-7" value="Single DS 02" style="shape=datastore;whiteSpace=wrap;html=1;sketch=1;hachureGap=4;jiggle=2;curveFitting=1;fontFamily=Comic Sans MS;" vertex="1" parent="MvP96J6XM6N36xusTDzM-10">
          <mxGeometry y="36.84210526315789" width="81.00000000000001" height="29.473684210526315" as="geometry" />
        </mxCell>
        <mxCell id="MvP96J6XM6N36xusTDzM-8" value="Single DS 03" style="shape=datastore;whiteSpace=wrap;html=1;sketch=1;hachureGap=4;jiggle=2;curveFitting=1;fontFamily=Comic Sans MS;" vertex="1" parent="MvP96J6XM6N36xusTDzM-10">
          <mxGeometry y="73.68421052631578" width="81.00000000000001" height="29.473684210526315" as="geometry" />
        </mxCell>
        <mxCell id="MvP96J6XM6N36xusTDzM-9" value="Single DS 04" style="shape=datastore;whiteSpace=wrap;html=1;sketch=1;hachureGap=4;jiggle=2;curveFitting=1;fontFamily=Comic Sans MS;" vertex="1" parent="MvP96J6XM6N36xusTDzM-10">
          <mxGeometry y="110.52631578947368" width="81.00000000000001" height="29.473684210526315" as="geometry" />
        </mxCell>
        <mxCell id="MvP96J6XM6N36xusTDzM-12" value="" style="group;fontFamily=Comic Sans MS;" vertex="1" connectable="0" parent="1">
          <mxGeometry x="373" y="320" width="81" height="140" as="geometry" />
        </mxCell>
        <mxCell id="MvP96J6XM6N36xusTDzM-13" value="Single DS 01" style="shape=datastore;whiteSpace=wrap;html=1;sketch=1;hachureGap=4;jiggle=2;curveFitting=1;fontFamily=Comic Sans MS;" vertex="1" parent="MvP96J6XM6N36xusTDzM-12">
          <mxGeometry width="81.00000000000001" height="29.473684210526315" as="geometry" />
        </mxCell>
        <mxCell id="MvP96J6XM6N36xusTDzM-14" value="Single DS 02" style="shape=datastore;whiteSpace=wrap;html=1;sketch=1;hachureGap=4;jiggle=2;curveFitting=1;fontFamily=Comic Sans MS;" vertex="1" parent="MvP96J6XM6N36xusTDzM-12">
          <mxGeometry y="36.84210526315789" width="81.00000000000001" height="29.473684210526315" as="geometry" />
        </mxCell>
        <mxCell id="MvP96J6XM6N36xusTDzM-15" value="Single DS 03" style="shape=datastore;whiteSpace=wrap;html=1;sketch=1;hachureGap=4;jiggle=2;curveFitting=1;fontFamily=Comic Sans MS;" vertex="1" parent="MvP96J6XM6N36xusTDzM-12">
          <mxGeometry y="73.68421052631578" width="81.00000000000001" height="29.473684210526315" as="geometry" />
        </mxCell>
        <mxCell id="MvP96J6XM6N36xusTDzM-16" value="Single DS 04" style="shape=datastore;whiteSpace=wrap;html=1;sketch=1;hachureGap=4;jiggle=2;curveFitting=1;fontFamily=Comic Sans MS;" vertex="1" parent="MvP96J6XM6N36xusTDzM-12">
          <mxGeometry y="110.52631578947368" width="81.00000000000001" height="29.473684210526315" as="geometry" />
        </mxCell>
        <mxCell id="MvP96J6XM6N36xusTDzM-19" value="" style="shape=curlyBracket;whiteSpace=wrap;html=1;rounded=1;labelPosition=left;verticalLabelPosition=middle;align=right;verticalAlign=middle;sketch=1;hachureGap=4;jiggle=2;curveFitting=1;fontFamily=Comic Sans MS;size=0.5;" vertex="1" parent="1">
          <mxGeometry x="340" y="330" width="20" height="120" as="geometry" />
        </mxCell>
        <mxCell id="MvP96J6XM6N36xusTDzM-20" value="" style="group;fontFamily=Comic Sans MS;" vertex="1" connectable="0" parent="1">
          <mxGeometry x="373" y="510" width="81" height="140" as="geometry" />
        </mxCell>
        <mxCell id="MvP96J6XM6N36xusTDzM-21" value="Single DS 01" style="shape=datastore;whiteSpace=wrap;html=1;sketch=1;hachureGap=4;jiggle=2;curveFitting=1;fontFamily=Comic Sans MS;" vertex="1" parent="MvP96J6XM6N36xusTDzM-20">
          <mxGeometry width="81.00000000000001" height="29.473684210526315" as="geometry" />
        </mxCell>
        <mxCell id="MvP96J6XM6N36xusTDzM-22" value="Single DS 02" style="shape=datastore;whiteSpace=wrap;html=1;sketch=1;hachureGap=4;jiggle=2;curveFitting=1;fontFamily=Comic Sans MS;" vertex="1" parent="MvP96J6XM6N36xusTDzM-20">
          <mxGeometry y="36.84210526315789" width="81.00000000000001" height="29.473684210526315" as="geometry" />
        </mxCell>
        <mxCell id="MvP96J6XM6N36xusTDzM-23" value="Single DS 03" style="shape=datastore;whiteSpace=wrap;html=1;sketch=1;hachureGap=4;jiggle=2;curveFitting=1;fontFamily=Comic Sans MS;" vertex="1" parent="MvP96J6XM6N36xusTDzM-20">
          <mxGeometry y="73.68421052631578" width="81.00000000000001" height="29.473684210526315" as="geometry" />
        </mxCell>
        <mxCell id="MvP96J6XM6N36xusTDzM-24" value="Single DS 04" style="shape=datastore;whiteSpace=wrap;html=1;sketch=1;hachureGap=4;jiggle=2;curveFitting=1;fontFamily=Comic Sans MS;" vertex="1" parent="MvP96J6XM6N36xusTDzM-20">
          <mxGeometry y="110.52631578947368" width="81.00000000000001" height="29.473684210526315" as="geometry" />
        </mxCell>
        <mxCell id="MvP96J6XM6N36xusTDzM-26" value="" style="shape=curlyBracket;whiteSpace=wrap;html=1;rounded=1;labelPosition=left;verticalLabelPosition=middle;align=right;verticalAlign=middle;sketch=1;hachureGap=4;jiggle=2;curveFitting=1;fontFamily=Comic Sans MS;size=0.5;" vertex="1" parent="1">
          <mxGeometry x="340" y="520" width="20" height="120" as="geometry" />
        </mxCell>
        <mxCell id="MvP96J6XM6N36xusTDzM-27" value="" style="group;fontFamily=Comic Sans MS;" vertex="1" connectable="0" parent="1">
          <mxGeometry x="373" y="690" width="81" height="140" as="geometry" />
        </mxCell>
        <mxCell id="MvP96J6XM6N36xusTDzM-28" value="Single DS 01" style="shape=datastore;whiteSpace=wrap;html=1;sketch=1;hachureGap=4;jiggle=2;curveFitting=1;fontFamily=Comic Sans MS;" vertex="1" parent="MvP96J6XM6N36xusTDzM-27">
          <mxGeometry width="81.00000000000001" height="29.473684210526315" as="geometry" />
        </mxCell>
        <mxCell id="MvP96J6XM6N36xusTDzM-29" value="Single DS 02" style="shape=datastore;whiteSpace=wrap;html=1;sketch=1;hachureGap=4;jiggle=2;curveFitting=1;fontFamily=Comic Sans MS;" vertex="1" parent="MvP96J6XM6N36xusTDzM-27">
          <mxGeometry y="36.84210526315789" width="81.00000000000001" height="29.473684210526315" as="geometry" />
        </mxCell>
        <mxCell id="MvP96J6XM6N36xusTDzM-30" value="Single DS 03" style="shape=datastore;whiteSpace=wrap;html=1;sketch=1;hachureGap=4;jiggle=2;curveFitting=1;fontFamily=Comic Sans MS;" vertex="1" parent="MvP96J6XM6N36xusTDzM-27">
          <mxGeometry y="73.68421052631578" width="81.00000000000001" height="29.473684210526315" as="geometry" />
        </mxCell>
        <mxCell id="MvP96J6XM6N36xusTDzM-31" value="Single DS 04" style="shape=datastore;whiteSpace=wrap;html=1;sketch=1;hachureGap=4;jiggle=2;curveFitting=1;fontFamily=Comic Sans MS;" vertex="1" parent="MvP96J6XM6N36xusTDzM-27">
          <mxGeometry y="110.52631578947368" width="81.00000000000001" height="29.473684210526315" as="geometry" />
        </mxCell>
        <mxCell id="MvP96J6XM6N36xusTDzM-33" value="" style="shape=curlyBracket;whiteSpace=wrap;html=1;rounded=1;labelPosition=left;verticalLabelPosition=middle;align=right;verticalAlign=middle;sketch=1;hachureGap=4;jiggle=2;curveFitting=1;fontFamily=Comic Sans MS;size=0.5;" vertex="1" parent="1">
          <mxGeometry x="340" y="700" width="20" height="120" as="geometry" />
        </mxCell>
        <mxCell id="MvP96J6XM6N36xusTDzM-34" value="IMPALAD 1" style="whiteSpace=wrap;html=1;align=center;sketch=1;hachureGap=4;jiggle=2;curveFitting=1;fontFamily=Comic Sans MS;rounded=1;" vertex="1" parent="1">
          <mxGeometry x="780" y="190" width="100" height="40" as="geometry" />
        </mxCell>
        <mxCell id="MvP96J6XM6N36xusTDzM-35" value="IMPALAD 3" style="whiteSpace=wrap;html=1;align=center;sketch=1;hachureGap=4;jiggle=2;curveFitting=1;fontFamily=Comic Sans MS;rounded=1;" vertex="1" parent="1">
          <mxGeometry x="780" y="550" width="100" height="40" as="geometry" />
        </mxCell>
        <mxCell id="MvP96J6XM6N36xusTDzM-36" value="IMPALAD 2" style="whiteSpace=wrap;html=1;align=center;sketch=1;hachureGap=4;jiggle=2;curveFitting=1;fontFamily=Comic Sans MS;rounded=1;" vertex="1" parent="1">
          <mxGeometry x="780" y="370" width="100" height="40" as="geometry" />
        </mxCell>
        <mxCell id="MvP96J6XM6N36xusTDzM-37" value="IMPALAD 4" style="whiteSpace=wrap;html=1;align=center;sketch=1;hachureGap=4;jiggle=2;curveFitting=1;fontFamily=Comic Sans MS;rounded=1;" vertex="1" parent="1">
          <mxGeometry x="780" y="730" width="100" height="40" as="geometry" />
        </mxCell>
        <mxCell id="MvP96J6XM6N36xusTDzM-38" style="rounded=0;sketch=1;hachureGap=4;jiggle=2;curveFitting=1;orthogonalLoop=1;jettySize=auto;html=1;entryX=0;entryY=0.5;entryDx=0;entryDy=0;fontFamily=Architects Daughter;fontSource=https%3A%2F%2Ffonts.googleapis.com%2Fcss%3Ffamily%3DArchitects%2BDaughter;exitX=1;exitY=0.5;exitDx=0;exitDy=0;" edge="1" parent="1" source="MvP96J6XM6N36xusTDzM-6" target="MvP96J6XM6N36xusTDzM-34">
          <mxGeometry relative="1" as="geometry" />
        </mxCell>
        <mxCell id="MvP96J6XM6N36xusTDzM-39" style="rounded=0;sketch=1;hachureGap=4;jiggle=2;curveFitting=1;orthogonalLoop=1;jettySize=auto;html=1;entryX=0;entryY=0.5;entryDx=0;entryDy=0;fontFamily=Architects Daughter;fontSource=https%3A%2F%2Ffonts.googleapis.com%2Fcss%3Ffamily%3DArchitects%2BDaughter;exitX=1;exitY=0.5;exitDx=0;exitDy=0;" edge="1" parent="1" source="MvP96J6XM6N36xusTDzM-7" target="MvP96J6XM6N36xusTDzM-36">
          <mxGeometry relative="1" as="geometry" />
        </mxCell>
        <mxCell id="MvP96J6XM6N36xusTDzM-40" style="rounded=0;sketch=1;hachureGap=4;jiggle=2;curveFitting=1;orthogonalLoop=1;jettySize=auto;html=1;entryX=0;entryY=0.5;entryDx=0;entryDy=0;fontFamily=Architects Daughter;fontSource=https%3A%2F%2Ffonts.googleapis.com%2Fcss%3Ffamily%3DArchitects%2BDaughter;exitX=1;exitY=0.5;exitDx=0;exitDy=0;" edge="1" parent="1" source="MvP96J6XM6N36xusTDzM-8" target="MvP96J6XM6N36xusTDzM-35">
          <mxGeometry relative="1" as="geometry" />
        </mxCell>
        <mxCell id="MvP96J6XM6N36xusTDzM-41" style="rounded=0;sketch=1;hachureGap=4;jiggle=2;curveFitting=1;orthogonalLoop=1;jettySize=auto;html=1;entryX=0;entryY=0.5;entryDx=0;entryDy=0;fontFamily=Architects Daughter;fontSource=https%3A%2F%2Ffonts.googleapis.com%2Fcss%3Ffamily%3DArchitects%2BDaughter;exitX=1;exitY=0.5;exitDx=0;exitDy=0;" edge="1" parent="1" source="MvP96J6XM6N36xusTDzM-9" target="MvP96J6XM6N36xusTDzM-37">
          <mxGeometry relative="1" as="geometry" />
        </mxCell>
        <mxCell id="MvP96J6XM6N36xusTDzM-42" style="rounded=0;sketch=1;hachureGap=4;jiggle=2;curveFitting=1;orthogonalLoop=1;jettySize=auto;html=1;entryX=0;entryY=0.5;entryDx=0;entryDy=0;fontFamily=Architects Daughter;fontSource=https%3A%2F%2Ffonts.googleapis.com%2Fcss%3Ffamily%3DArchitects%2BDaughter;exitX=1;exitY=0.5;exitDx=0;exitDy=0;" edge="1" parent="1" source="MvP96J6XM6N36xusTDzM-13" target="MvP96J6XM6N36xusTDzM-34">
          <mxGeometry relative="1" as="geometry" />
        </mxCell>
        <mxCell id="MvP96J6XM6N36xusTDzM-43" style="rounded=0;sketch=1;hachureGap=4;jiggle=2;curveFitting=1;orthogonalLoop=1;jettySize=auto;html=1;entryX=0;entryY=0.5;entryDx=0;entryDy=0;fontFamily=Architects Daughter;fontSource=https%3A%2F%2Ffonts.googleapis.com%2Fcss%3Ffamily%3DArchitects%2BDaughter;" edge="1" parent="1" source="MvP96J6XM6N36xusTDzM-14" target="MvP96J6XM6N36xusTDzM-36">
          <mxGeometry relative="1" as="geometry" />
        </mxCell>
        <mxCell id="MvP96J6XM6N36xusTDzM-44" style="rounded=0;sketch=1;hachureGap=4;jiggle=2;curveFitting=1;orthogonalLoop=1;jettySize=auto;html=1;entryX=0;entryY=0.5;entryDx=0;entryDy=0;fontFamily=Architects Daughter;fontSource=https%3A%2F%2Ffonts.googleapis.com%2Fcss%3Ffamily%3DArchitects%2BDaughter;exitX=1;exitY=0.5;exitDx=0;exitDy=0;" edge="1" parent="1" source="MvP96J6XM6N36xusTDzM-15" target="MvP96J6XM6N36xusTDzM-35">
          <mxGeometry relative="1" as="geometry" />
        </mxCell>
        <mxCell id="MvP96J6XM6N36xusTDzM-45" style="rounded=0;sketch=1;hachureGap=4;jiggle=2;curveFitting=1;orthogonalLoop=1;jettySize=auto;html=1;entryX=0;entryY=0.5;entryDx=0;entryDy=0;fontFamily=Architects Daughter;fontSource=https%3A%2F%2Ffonts.googleapis.com%2Fcss%3Ffamily%3DArchitects%2BDaughter;exitX=1;exitY=0.5;exitDx=0;exitDy=0;" edge="1" parent="1" source="MvP96J6XM6N36xusTDzM-16" target="MvP96J6XM6N36xusTDzM-37">
          <mxGeometry relative="1" as="geometry" />
        </mxCell>
        <mxCell id="MvP96J6XM6N36xusTDzM-46" style="rounded=0;sketch=1;hachureGap=4;jiggle=2;curveFitting=1;orthogonalLoop=1;jettySize=auto;html=1;entryX=0;entryY=0.5;entryDx=0;entryDy=0;fontFamily=Architects Daughter;fontSource=https%3A%2F%2Ffonts.googleapis.com%2Fcss%3Ffamily%3DArchitects%2BDaughter;exitX=1;exitY=0.7;exitDx=0;exitDy=0;" edge="1" parent="1" source="MvP96J6XM6N36xusTDzM-21" target="MvP96J6XM6N36xusTDzM-34">
          <mxGeometry relative="1" as="geometry" />
        </mxCell>
        <mxCell id="MvP96J6XM6N36xusTDzM-47" style="rounded=0;sketch=1;hachureGap=4;jiggle=2;curveFitting=1;orthogonalLoop=1;jettySize=auto;html=1;entryX=0;entryY=0.5;entryDx=0;entryDy=0;fontFamily=Architects Daughter;fontSource=https%3A%2F%2Ffonts.googleapis.com%2Fcss%3Ffamily%3DArchitects%2BDaughter;exitX=1;exitY=0.5;exitDx=0;exitDy=0;" edge="1" parent="1" source="MvP96J6XM6N36xusTDzM-22" target="MvP96J6XM6N36xusTDzM-36">
          <mxGeometry relative="1" as="geometry" />
        </mxCell>
        <mxCell id="MvP96J6XM6N36xusTDzM-48" style="rounded=0;sketch=1;hachureGap=4;jiggle=2;curveFitting=1;orthogonalLoop=1;jettySize=auto;html=1;fontFamily=Architects Daughter;fontSource=https%3A%2F%2Ffonts.googleapis.com%2Fcss%3Ffamily%3DArchitects%2BDaughter;exitX=1;exitY=0.5;exitDx=0;exitDy=0;" edge="1" parent="1" source="MvP96J6XM6N36xusTDzM-23" target="MvP96J6XM6N36xusTDzM-35">
          <mxGeometry relative="1" as="geometry" />
        </mxCell>
        <mxCell id="MvP96J6XM6N36xusTDzM-49" style="rounded=0;sketch=1;hachureGap=4;jiggle=2;curveFitting=1;orthogonalLoop=1;jettySize=auto;html=1;entryX=0;entryY=0.5;entryDx=0;entryDy=0;fontFamily=Architects Daughter;fontSource=https%3A%2F%2Ffonts.googleapis.com%2Fcss%3Ffamily%3DArchitects%2BDaughter;exitX=1;exitY=0.5;exitDx=0;exitDy=0;" edge="1" parent="1" source="MvP96J6XM6N36xusTDzM-24" target="MvP96J6XM6N36xusTDzM-37">
          <mxGeometry relative="1" as="geometry" />
        </mxCell>
        <mxCell id="MvP96J6XM6N36xusTDzM-50" style="rounded=0;sketch=1;hachureGap=4;jiggle=2;curveFitting=1;orthogonalLoop=1;jettySize=auto;html=1;entryX=0;entryY=0.5;entryDx=0;entryDy=0;fontFamily=Architects Daughter;fontSource=https%3A%2F%2Ffonts.googleapis.com%2Fcss%3Ffamily%3DArchitects%2BDaughter;exitX=1;exitY=0.5;exitDx=0;exitDy=0;" edge="1" parent="1" source="MvP96J6XM6N36xusTDzM-28" target="MvP96J6XM6N36xusTDzM-34">
          <mxGeometry relative="1" as="geometry" />
        </mxCell>
        <mxCell id="MvP96J6XM6N36xusTDzM-51" style="rounded=0;sketch=1;hachureGap=4;jiggle=2;curveFitting=1;orthogonalLoop=1;jettySize=auto;html=1;entryX=0;entryY=0.5;entryDx=0;entryDy=0;fontFamily=Architects Daughter;fontSource=https%3A%2F%2Ffonts.googleapis.com%2Fcss%3Ffamily%3DArchitects%2BDaughter;exitX=1;exitY=0.5;exitDx=0;exitDy=0;" edge="1" parent="1" source="MvP96J6XM6N36xusTDzM-29" target="MvP96J6XM6N36xusTDzM-36">
          <mxGeometry relative="1" as="geometry" />
        </mxCell>
        <mxCell id="MvP96J6XM6N36xusTDzM-52" style="rounded=0;sketch=1;hachureGap=4;jiggle=2;curveFitting=1;orthogonalLoop=1;jettySize=auto;html=1;entryX=0;entryY=0.5;entryDx=0;entryDy=0;fontFamily=Architects Daughter;fontSource=https%3A%2F%2Ffonts.googleapis.com%2Fcss%3Ffamily%3DArchitects%2BDaughter;exitX=1;exitY=0.7;exitDx=0;exitDy=0;" edge="1" parent="1" source="MvP96J6XM6N36xusTDzM-30" target="MvP96J6XM6N36xusTDzM-35">
          <mxGeometry relative="1" as="geometry" />
        </mxCell>
        <mxCell id="MvP96J6XM6N36xusTDzM-53" style="rounded=0;sketch=1;hachureGap=4;jiggle=2;curveFitting=1;orthogonalLoop=1;jettySize=auto;html=1;entryX=0;entryY=0.5;entryDx=0;entryDy=0;fontFamily=Architects Daughter;fontSource=https%3A%2F%2Ffonts.googleapis.com%2Fcss%3Ffamily%3DArchitects%2BDaughter;exitX=1;exitY=0.7;exitDx=0;exitDy=0;" edge="1" parent="1" source="MvP96J6XM6N36xusTDzM-31" target="MvP96J6XM6N36xusTDzM-37">
          <mxGeometry relative="1" as="geometry" />
        </mxCell>
        <mxCell id="MvP96J6XM6N36xusTDzM-54" value="client 1" style="rounded=1;whiteSpace=wrap;html=1;sketch=1;hachureGap=4;jiggle=2;curveFitting=1;fontFamily=Architects Daughter;fontSource=https%3A%2F%2Ffonts.googleapis.com%2Fcss%3Ffamily%3DArchitects%2BDaughter;" vertex="1" parent="1">
          <mxGeometry x="60" y="191.5" width="100" height="37" as="geometry" />
        </mxCell>
        <mxCell id="MvP96J6XM6N36xusTDzM-55" value="client 2" style="rounded=1;whiteSpace=wrap;html=1;sketch=1;hachureGap=4;jiggle=2;curveFitting=1;fontFamily=Architects Daughter;fontSource=https%3A%2F%2Ffonts.googleapis.com%2Fcss%3Ffamily%3DArchitects%2BDaughter;" vertex="1" parent="1">
          <mxGeometry x="60" y="371.5" width="100" height="37" as="geometry" />
        </mxCell>
        <mxCell id="MvP96J6XM6N36xusTDzM-56" value="client 3" style="rounded=1;whiteSpace=wrap;html=1;sketch=1;hachureGap=4;jiggle=2;curveFitting=1;fontFamily=Architects Daughter;fontSource=https%3A%2F%2Ffonts.googleapis.com%2Fcss%3Ffamily%3DArchitects%2BDaughter;" vertex="1" parent="1">
          <mxGeometry x="60" y="551.5" width="100" height="37" as="geometry" />
        </mxCell>
        <mxCell id="MvP96J6XM6N36xusTDzM-57" value="client 4" style="rounded=1;whiteSpace=wrap;html=1;sketch=1;hachureGap=4;jiggle=2;curveFitting=1;fontFamily=Architects Daughter;fontSource=https%3A%2F%2Ffonts.googleapis.com%2Fcss%3Ffamily%3DArchitects%2BDaughter;" vertex="1" parent="1">
          <mxGeometry x="60" y="731.5" width="100" height="37" as="geometry" />
        </mxCell>
      </root>
    </mxGraphModel>
  </diagram>
</mxfile>
